<svg xmlns="http://www.w3.org/2000/svg" xmlns:xlink="http://www.w3.org/1999/xlink" width="698" zoomAndPan="magnify" viewBox="0 0 523.5 523.499968" height="698" preserveAspectRatio="xMidYMid meet" version="1.0"><defs><clipPath id="49b5c18065"><path d="M 10.847656 0 L 512.117188 0 L 512.117188 523 L 10.847656 523 Z M 10.847656 0 " clip-rule="nonzero"/></clipPath></defs><path fill="#000000" d="M 261.496094 130.371094 C 206.125 130.371094 161.234375 177.5 161.234375 235.636719 C 161.234375 293.777344 206.125 340.902344 261.496094 340.902344 C 316.871094 340.902344 361.753906 293.777344 361.753906 235.636719 C 361.753906 177.5 316.871094 130.371094 261.496094 130.371094 " fill-opacity="1" fill-rule="nonzero"/><g clip-path="url(#49b5c18065)"><path fill="#000000" d="M 428.007812 445.050781 C 405.804688 390.867188 359.1875 356.980469 261.34375 356.980469 C 163.628906 356.980469 117.011719 390.777344 94.773438 444.835938 C 49.511719 398.980469 21.355469 334.628906 21.355469 263.375 C 21.355469 124.121094 128.871094 11.238281 261.496094 11.238281 C 394.125 11.238281 501.640625 124.121094 501.640625 263.375 C 501.640625 334.742188 473.394531 399.179688 428.007812 445.050781 Z M 261.496094 0.207031 C 123.066406 0.207031 10.847656 118.03125 10.847656 263.375 C 10.847656 339.390625 41.542969 407.882812 90.640625 455.925781 C 135.40625 499.734375 195.464844 526.539062 261.496094 526.539062 C 327.410156 526.539062 387.382812 499.824219 432.128906 456.144531 C 481.347656 408.09375 512.148438 339.507812 512.148438 263.375 C 512.148438 118.03125 399.921875 0.207031 261.496094 0.207031 " fill-opacity="1" fill-rule="nonzero"/></g></svg>